HIERARCHY
ROOT Hips
{
	OFFSET -0.001795 -0.223333 0.028219
	CHANNELS 6 Xposition Yposition Zposition Zrotation Yrotation Xrotation 
	JOINT LeftUpLeg
	{
		OFFSET 0.069520 -0.091406 -0.006815
		CHANNELS 3 Zrotation Yrotation Xrotation
		JOINT LeftLeg
		{
			OFFSET 0.034277 -0.375199 -0.004496
			CHANNELS 3 Zrotation Yrotation Xrotation
			JOINT LeftFoot
			{
				OFFSET -0.013596 -0.397961 -0.043693
				CHANNELS 3 Zrotation Yrotation Xrotation
				JOINT LeftToe
				{
					OFFSET 0.026358 -0.055791 0.119288
					CHANNELS 3 Zrotation Yrotation Xrotation
					End Site
					{
						OFFSET 0.000000 0.000000 0.000000
					}
				}
			}
		}
	}
	JOINT RightUpLeg
	{
		OFFSET -0.067670 -0.090522 -0.004320
		CHANNELS 3 Zrotation Yrotation Xrotation
		JOINT RightLeg
		{
			OFFSET -0.038290 -0.382569 -0.008850
			CHANNELS 3 Zrotation Yrotation Xrotation
			JOINT RightFoot
			{
				OFFSET 0.015774 -0.398415 -0.042312
				CHANNELS 3 Zrotation Yrotation Xrotation
				JOINT RightToe
				{
					OFFSET -0.025372 -0.048144 0.123348
					CHANNELS 3 Zrotation Yrotation Xrotation
					End Site
					{
						OFFSET 0.000000 0.000000 0.000000
					}
				}
			}
		}
	}
	JOINT Spine
	{
		OFFSET -0.002533 0.108963 -0.026696
		CHANNELS 3 Zrotation Yrotation Xrotation
		JOINT Spine1
		{
			OFFSET 0.005487 0.135180 0.001092
			CHANNELS 3 Zrotation Yrotation Xrotation
			JOINT Spine2
			{
				OFFSET 0.001457 0.052922 0.025425
				CHANNELS 3 Zrotation Yrotation Xrotation
				JOINT Neck
				{
					OFFSET -0.002778 0.213870 -0.042857
					CHANNELS 3 Zrotation Yrotation Xrotation
					JOINT Head
					{
						OFFSET 0.005152 0.064970 0.051349
						CHANNELS 3 Zrotation Yrotation Xrotation
						End Site
						{
							OFFSET 0.000000 0.000000 0.000000
						}
					}
				}
				JOINT LeftShoulder
				{
					OFFSET 0.078845 0.121749 -0.034090
					CHANNELS 3 Zrotation Yrotation Xrotation
					JOINT LeftArm
					{
						OFFSET 0.090977 0.030469 -0.008868
						CHANNELS 3 Zrotation Yrotation Xrotation
						JOINT LeftForeArm
						{
							OFFSET 0.259612 -0.012772 -0.027456
							CHANNELS 3 Zrotation Yrotation Xrotation
							JOINT LeftHand
							{
								OFFSET 0.249234 0.008986 -0.001171
								CHANNELS 3 Zrotation Yrotation Xrotation
								End Site
								{
									OFFSET 0.000000 0.000000 0.000000
								}
							}
						}
					}
				}
				JOINT RightShoulder
				{
					OFFSET -0.081759 0.118833 -0.038615
					CHANNELS 3 Zrotation Yrotation Xrotation
					JOINT RightArm
					{
						OFFSET -0.096012 0.032551 -0.009143
						CHANNELS 3 Zrotation Yrotation Xrotation
						JOINT RightForeArm
						{
							OFFSET -0.253742 -0.013329 -0.021401
							CHANNELS 3 Zrotation Yrotation Xrotation
							JOINT RightHand
							{
								OFFSET -0.255298 0.007772 -0.005559
								CHANNELS 3 Zrotation Yrotation Xrotation
								End Site
								{
									OFFSET 0.000000 0.000000 0.000000
								}
							}
						}
					}
				}
			}
		}
	}
}
MOTION
Frames: 16
Frame Time: 0.050000
0.000000 0.946077 0.000000 -1.561704 -0.619593 6.291641 6.105898 -0.325456 -4.448761 3.439781 -0.065580 -4.763826 -2.063168 0.571911 10.673814 0.000000 0.000000 0.000000 -3.972693 0.551599 -5.998903 -1.975078 0.031872 -2.990174 2.074489 -6.553122 28.721890 0.000000 0.000000 0.000000 3.481774 0.144226 -3.434467 -1.289040 0.618485 -0.974652 -1.588221 2.315454 0.608396 4.008442 -2.119071 -7.173159 0.000000 0.000000 0.000000 -21.276245 -3.939651 -0.686339 -50.638612 -6.589369 -2.715826 -11.662173 -15.928534 2.115992 0.000000 0.000000 0.000000 20.659128 0.847300 -0.976303 54.779860 7.092167 -1.774760 9.800867 17.225223 1.889456 0.000000 0.000000 0.000000 
0.000173 0.945305 0.001233 -1.691316 -1.574872 6.847328 5.620278 -0.314023 -4.105106 4.419257 -0.051625 -5.882877 -1.593031 1.315734 10.829211 0.000000 0.000000 0.000000 -3.869964 0.597732 -6.488453 -2.060338 0.012624 -3.370417 2.521104 -6.098099 28.518767 0.000000 0.000000 0.000000 3.824022 0.191573 -4.088477 -2.024403 0.954384 -1.316747 -1.166266 2.636788 0.403718 3.837078 -2.067245 -6.759985 0.000000 0.000000 0.000000 -22.343516 -3.329697 -1.057762 -50.400354 -6.934814 -2.544155 -11.678279 -15.768361 2.102644 0.000000 0.000000 0.000000 19.976928 0.543876 -1.189513 55.977851 6.779345 -1.886983 10.667470 17.693562 2.059215 0.000000 0.000000 0.000000 
0.000293 0.945339 0.002083 -1.410643 -0.886037 6.735380 5.416854 -0.319440 -4.035491 4.301509 -0.032980 -6.003636 -1.965808 0.783599 10.875852 0.000000 0.000000 0.000000 -3.958276 0.585270 -6.416347 -2.387835 0.064182 -2.949325 2.115487 -6.475928 28.409591 0.000000 0.000000 0.000000 3.295358 0.165683 -3.788218 -1.168054 0.579740 -2.528535 -1.894058 2.211813 0.549780 4.004179 -2.399333 -5.190771 0.000000 0.000000 0.000000 -21.984619 -3.834432 -0.768315 -50.376091 -6.598436 -2.689081 -11.993681 -14.952317 2.029006 0.000000 0.000000 0.000000 21.426883 1.744202 -0.567732 54.388990 6.156325 -2.181805 10.831124 18.257805 2.161368 0.000000 0.000000 0.000000 
0.000381 0.945071 0.002842 -1.667951 -1.326745 7.224960 5.555118 -0.337383 -4.465266 4.504136 -0.053595 -5.891722 -1.673201 1.179300 10.755998 0.000000 0.000000 0.000000 -3.699766 0.660046 -7.336720 -2.427491 0.103287 -2.316286 2.293376 -6.304008 28.311924 0.000000 0.000000 0.000000 3.438325 0.202247 -4.328653 -1.747510 0.831119 -2.096316 -0.864619 1.428589 -0.491520 3.531911 -2.287161 -3.628318 0.000000 0.000000 0.000000 -22.116059 -3.227484 -0.787327 -50.778736 -6.919977 -2.563977 -11.882353 -14.477723 1.972109 0.000000 0.000000 0.000000 20.329299 2.099824 -0.688227 54.676380 5.635414 -2.230071 12.198811 18.792914 2.385467 0.000000 0.000000 0.000000 
0.000389 0.945271 0.003452 -1.467070 -0.843388 7.158742 5.314929 -0.342900 -4.416702 4.594467 -0.048323 -5.999626 -1.948037 0.810827 10.861235 0.000000 0.000000 0.000000 -3.868896 0.637873 -7.124908 -2.459572 0.106951 -2.333164 2.039747 -6.555199 28.351310 0.000000 0.000000 0.000000 3.108850 0.210853 -4.504358 -1.255900 0.611433 -1.879095 -1.125006 0.831361 -0.796317 2.994779 -1.895027 -3.616539 0.000000 0.000000 0.000000 -22.357124 -3.459617 -0.611804 -50.477985 -7.580760 -2.264149 -12.742341 -14.124779 2.030952 0.000000 0.000000 0.000000 19.946862 2.235794 -0.664137 54.681799 5.570856 -2.214160 13.492207 19.544922 2.682283 0.000000 0.000000 0.000000 
0.000423 0.945570 0.003841 -1.402611 -1.086070 7.372525 5.159337 -0.351134 -4.560770 4.704115 -0.053755 -6.017874 -1.847063 1.003805 10.997291 0.000000 0.000000 0.000000 -3.909069 0.663779 -7.468338 -2.555177 0.123187 -2.175412 2.158272 -6.459278 28.402688 0.000000 0.000000 0.000000 2.911001 0.230152 -4.821452 -1.227597 0.596837 -1.805763 -0.832348 0.617808 -0.983668 2.911900 -1.912101 -3.008606 0.000000 0.000000 0.000000 -22.668283 -3.278915 -0.621097 -50.352748 -7.858351 -2.157374 -12.792062 -14.050956 2.035104 0.000000 0.000000 0.000000 19.717515 2.616026 -0.557144 54.711519 5.983444 -1.986180 14.110120 19.430593 2.739757 0.000000 0.000000 0.000000 
0.000420 0.945684 0.003940 -1.225999 -0.902293 7.399585 5.005231 -0.356535 -4.579470 4.654254 -0.042591 -6.115314 -1.969588 0.857868 11.100476 0.000000 0.000000 0.000000 -4.055130 0.656158 -7.421308 -2.620475 0.125459 -2.238163 2.053367 -6.565176 28.416824 0.000000 0.000000 0.000000 2.696483 0.231311 -4.892609 -1.176312 0.571744 -1.568998 -0.892207 0.097222 -1.139143 2.714000 -1.750060 -3.187981 0.000000 0.000000 0.000000 -22.686044 -3.224661 -0.538060 -50.234309 -8.090286 -2.072142 -13.413282 -14.609702 2.206336 0.000000 0.000000 0.000000 19.575160 3.149454 -0.366630 54.691331 6.083649 -1.903588 14.872420 19.882502 2.913937 0.000000 0.000000 0.000000 
0.000454 0.945850 0.003844 -1.223096 -1.115156 7.537229 4.907626 -0.366324 -4.772929 4.789313 -0.062324 -5.964485 -1.859297 1.030680 11.134059 0.000000 0.000000 0.000000 -4.036262 0.668408 -7.555579 -2.694320 0.123122 -2.354399 2.173955 -6.465142 28.488379 0.000000 0.000000 0.000000 2.655153 0.234354 -4.944497 -1.195671 0.579097 -1.516326 -0.916480 0.285225 -1.187149 2.810248 -1.863034 -2.795899 0.000000 0.000000 0.000000 -22.803614 -3.473841 -0.430036 -49.922303 -8.385544 -1.927595 -13.749828 -14.998433 2.309122 0.000000 0.000000 0.000000 19.704891 3.324109 -0.260350 54.557807 6.375640 -1.764470 15.386456 19.745816 2.974786 0.000000 0.000000 0.000000 
0.000501 0.945887 0.003694 -1.202622 -1.132118 7.592209 4.822821 -0.369714 -4.805696 4.892848 -0.063231 -6.025374 -1.859516 1.046981 11.184013 0.000000 0.000000 0.000000 -4.081759 0.668052 -7.554123 -2.663255 0.112011 -2.488930 2.188983 -6.457217 28.526798 0.000000 0.000000 0.000000 2.621595 0.232345 -4.926120 -1.182093 0.570985 -1.344884 -0.914650 0.283100 -1.245062 2.707300 -1.788191 -2.775410 0.000000 0.000000 0.000000 -22.642784 -3.617101 -0.334187 -49.888168 -8.748147 -1.772472 -14.299820 -15.126299 2.401984 0.000000 0.000000 0.000000 19.677796 3.639482 -0.089718 54.256548 6.675470 -1.613102 15.500403 19.626799 2.971501 0.000000 0.000000 0.000000 
0.000559 0.945911 0.003589 -1.155591 -1.135664 7.660025 4.670619 -0.377021 -4.896244 5.064545 -0.073602 -6.011206 -1.861275 1.055907 11.216142 0.000000 0.000000 0.000000 -4.124140 0.672495 -7.628202 -2.690822 0.113229 -2.503010 2.185688 -6.464751 28.535959 0.000000 0.000000 0.000000 2.679900 0.237572 -5.003694 -1.220951 0.586960 -1.189699 -1.098580 0.450995 -1.227570 2.630013 -1.767674 -2.422512 0.000000 0.000000 0.000000 -22.493108 -3.936389 -0.203152 -49.698735 -9.060311 -1.623704 -14.869305 -15.467108 2.529497 0.000000 0.000000 0.000000 19.770641 3.866232 0.087097 53.908231 6.889417 -1.520542 15.902847 19.645500 3.047233 0.000000 0.000000 0.000000 
0.000605 0.945852 0.003535 -1.107193 -1.175172 7.708915 4.719874 -0.375340 -4.870943 4.872988 -0.052713 -6.143996 -1.853639 1.076047 11.251209 0.000000 0.000000 0.000000 -4.309159 0.672043 -7.672140 -2.470057 0.093168 -2.541452 2.197635 -6.450860 28.522626 0.000000 0.000000 0.000000 2.771201 0.234339 -4.942401 -1.263274 0.605998 -1.176145 -1.210534 0.585364 -1.194185 2.683291 -1.796465 -2.503441 0.000000 0.000000 0.000000 -22.540806 -3.989171 -0.220183 -49.462993 -9.037377 -1.615926 -15.284925 -15.796023 2.637990 0.000000 0.000000 0.000000 19.779594 3.820354 0.103153 53.764822 7.061151 -1.452062 16.040704 19.500175 3.050932 0.000000 0.000000 0.000000 
0.000623 0.945871 0.003479 -1.133447 -1.080760 7.794667 4.887074 -0.379396 -4.972091 4.643122 -0.037663 -6.174230 -1.898676 1.016249 11.267209 0.000000 0.000000 0.000000 -4.413750 0.669368 -7.664323 -2.225640 0.064925 -2.698840 2.161191 -6.496652 28.597907 0.000000 0.000000 0.000000 2.857147 0.234192 -4.951455 -1.267187 0.607815 -1.181713 -1.312689 0.710701 -1.202059 2.885306 -1.910324 -2.786986 0.000000 0.000000 0.000000 -22.297533 -3.941414 -0.287155 -49.407048 -9.035661 -1.599882 -15.634383 -15.996368 2.716519 0.000000 0.000000 0.000000 19.670325 3.629788 0.057337 53.675195 7.033549 -1.469657 16.241999 19.390292 3.069719 0.000000 0.000000 0.000000 
0.000614 0.945959 0.003407 -1.174538 -1.239719 7.809569 4.970438 -0.379859 -5.038642 4.554711 -0.044767 -6.025558 -1.809115 1.136338 11.238775 0.000000 0.000000 0.000000 -4.371097 0.674427 -7.702185 -2.238620 0.063747 -2.724753 2.253938 -6.413150 28.628407 0.000000 0.000000 0.000000 2.952103 0.234601 -4.930758 -1.242055 0.596664 -1.240179 -1.396926 1.025336 -1.156445 3.169505 -2.116178 -2.800136 0.000000 0.000000 0.000000 -22.195233 -4.003754 -0.319788 -49.309944 -8.773308 -1.685930 -15.928370 -16.200198 2.785326 0.000000 0.000000 0.000000 19.834381 3.457091 0.023688 53.461155 6.976790 -1.509958 16.278084 19.280531 3.068172 0.000000 0.000000 0.000000 
0.000593 0.946109 0.003339 -1.312623 -1.488848 7.811806 5.195676 -0.376447 -5.105252 4.393131 -0.053396 -5.806554 -1.664373 1.329131 11.184879 0.000000 0.000000 0.000000 -4.229624 0.679957 -7.698385 -2.243807 0.056879 -2.829231 2.413694 -6.270783 28.705583 0.000000 0.000000 0.000000 3.149249 0.236891 -4.918697 -1.291374 0.617874 -1.142501 -1.423443 1.324779 -1.204746 3.250212 -2.181669 -2.731747 0.000000 0.000000 0.000000 -22.120718 -3.967460 -0.388198 -49.145065 -8.784614 -1.658273 -16.148481 -16.088010 2.790462 0.000000 0.000000 0.000000 19.873868 3.443896 0.059887 53.297069 6.931468 -1.531090 16.159849 19.196243 3.041650 0.000000 0.000000 0.000000 
0.000583 0.946298 0.003316 -1.360696 -1.686869 7.855918 5.269624 -0.376501 -5.177882 4.328280 -0.059994 -5.681890 -1.563613 1.481680 11.204809 0.000000 0.000000 0.000000 -4.149703 0.688489 -7.768428 -2.313631 0.059410 -2.861135 2.532919 -6.169766 28.769985 0.000000 0.000000 0.000000 3.193973 0.240847 -4.961789 -1.343389 0.641777 -1.213437 -1.289762 1.463183 -1.058796 3.235105 -2.156151 -2.866780 0.000000 0.000000 0.000000 -22.096623 -3.824035 -0.457528 -48.936230 -8.706798 -1.699310 -16.031520 -15.959996 2.753667 0.000000 0.000000 0.000000 19.848055 3.435269 0.057797 53.188232 6.969936 -1.524838 15.817588 19.019490 2.957550 0.000000 0.000000 0.000000 
0.000575 0.946446 0.003331 -1.415121 -1.844934 7.840857 5.419278 -0.371770 -5.185282 4.145709 -0.058427 -5.568211 -1.482095 1.596526 11.197158 0.000000 0.000000 0.000000 -4.038807 0.696315 -7.832401 -2.419455 0.072299 -2.768361 2.624951 -6.088423 28.796744 0.000000 0.000000 0.000000 3.331979 0.236251 -4.864910 -1.432509 0.683653 -1.482951 -1.240169 1.680329 -0.849866 3.347688 -2.207273 -3.133187 0.000000 0.000000 0.000000 -21.943478 -3.762882 -0.503878 -48.799764 -8.551170 -1.769360 -15.967889 -15.677918 2.692649 0.000000 0.000000 0.000000 19.847997 3.465768 0.112466 53.094439 6.828345 -1.612790 15.562841 18.990335 2.920294 0.000000 0.000000 0.000000 
